<svg viewBox="-3 -1 24 24" xmlns="http://www.w3.org/2000/svg">
   <path
      d="M16.143 19.744c0-2.866-1.673-5.978-4.086-7.245.883-.722 1.44-1.683 1.44-2.835 0-1.563-1.024-2.875-2.504-3.513.38-.443.61-1 .61-1.628A2.524 2.524 0 009.07 2a2.536 2.536 0 00-1.92 4.184c-1.48.638-2.505 1.987-2.505 3.55 0 1.152.557 2.043 1.44 2.764C3.673 13.765 2 16.878 2 19.744h.74v1.228h12.692v-1.228h.711"
      fill="#100f0d" />
   <path
      d="M8.194 2.725s.076-.034.213-.088c.069-.028.15-.062.256-.077.103-.016.223-.056.353-.046.131-.001.275-.004.423.035.15.02.3.082.454.143.077.033.146.082.222.124.076.04.145.091.211.15.14.106.254.245.371.38.094.152.195.3.253.467.037.08.068.16.081.247.017.085.042.167.05.25.01.167.023.328-.01.478-.01.152-.062.288-.107.41-.033.128-.114.223-.162.315-.05.093-.113.16-.162.216-.098.111-.156.171-.156.171s.04-.077.11-.204c.036-.062.084-.135.112-.232.028-.097.085-.194.1-.315.024-.118.054-.243.05-.38.016-.135-.012-.276-.026-.422-.038-.14-.068-.29-.138-.427-.052-.144-.144-.271-.228-.403-.1-.118-.195-.243-.318-.337-.11-.109-.244-.182-.367-.261-.135-.06-.26-.132-.393-.161-.129-.047-.257-.063-.377-.08-.12-.024-.227-.007-.326-.012-.1-.006-.19.011-.261.025a4.884 4.884 0 01-.229.034M9.89 6.658c.003.005.096-.042.297-.043.195 0 .478.064.776.22.297.156.614.397.89.715.28.311.513.703.68 1.122.157.424.244.88.219 1.307a2.805 2.805 0 01-.09.606c-.05.188-.117.359-.19.509l-.114.21-.121.177c-.075.11-.158.193-.218.266-.137.133-.217.202-.217.202l.121-.266c.032-.087.078-.188.119-.306.043-.117.08-.252.118-.397.034-.147.057-.306.079-.472a4.02 4.02 0 00.004-.526c-.004-.181-.046-.365-.079-.552a3.673 3.673 0 00-.169-.552 3.578 3.578 0 00-.242-.53c-.095-.167-.187-.334-.298-.483a4.203 4.203 0 00-.675-.755c-.116-.092-.224-.18-.33-.24-.103-.064-.2-.11-.283-.142-.082-.027-.15-.053-.201-.057a2.835 2.835 0 00-.077-.013M10.514 13.103l.336.075c.11.015.23.079.375.128.148.049.297.137.466.223.172.081.334.21.52.324.174.128.357.266.537.42.175.16.363.319.532.502.18.175.344.368.509.561.165.194.313.4.462.603.138.21.284.41.397.623.125.205.229.414.322.617.102.197.16.405.234.587.053.19.104.366.135.528.02.166.044.31.048.432l-.019.393-.568-.102.034-.292c.004-.096-.009-.217-.014-.354-.016-.14-.05-.298-.084-.47-.056-.17-.093-.361-.176-.552a5.608 5.608 0 00-.26-.602c-.093-.21-.22-.41-.336-.622-.129-.203-.258-.414-.404-.612a7.858 7.858 0 00-.452-.58c-.153-.19-.324-.357-.483-.525a9.083 9.083 0 00-.496-.45c-.172-.123-.322-.261-.485-.351-.158-.097-.3-.195-.44-.25-.138-.06-.252-.132-.36-.155l-.33-.1"
      fill="#fff" />
</svg>