<svg width="32" height="32" viewBox="0 0 8.467 8.467" xmlns="http://www.w3.org/2000/svg">

    <g>
        <path
            d="M7.196 6.96c-.285-.273-.733-.26-1.174-.207-.643.078-.774-.089-.775-.09-.009-.018-.009-.132 0-.132h.446V5.19c.598-.35.89-.904.818-1.524-.083-.713-1.025-1.426-1.614-1.804a.604.604 0 10-.925-.004c-.593.373-1.544 1.08-1.62 1.808-.063.62.203 1.172.801 1.521v1.345h.47c.01 0 .01.114 0 .132 0 .001-.131.15-.774.072-.442-.054-.89-.057-1.175.216-.255.243-.259.603-.24.849l.823-.061c-.008-.097-.016-.152-.012-.181.028-.007.012-.012.16-.01v.328H6.59V7.55c0 .003.028.006.041.009.004.03 0 .085-.008.182l.818.063c.019-.246.01-.6-.245-.844"
            fill="#100f0d" />
        <path
            d="M4.389.984l.05-.014c.015-.004.037-.002.062-.002.024 0 .05.008.08.014.026.013.058.021.086.04a.561.561 0 01.224.25c.018.035.027.075.039.113.007.04.013.078.01.116.002.037-.006.074-.014.107-.006.034-.024.062-.035.09-.014.025-.032.046-.046.065-.012.02-.03.031-.042.043l-.04.033.024-.046c.007-.014.019-.03.025-.05.006-.022.017-.043.024-.068.003-.026.013-.052.014-.081a.462.462 0 000-.09c0-.032-.012-.063-.017-.095-.011-.03-.019-.064-.036-.093a.54.54 0 00-.049-.088c-.02-.027-.037-.055-.06-.078a.571.571 0 00-.065-.064c-.021-.021-.046-.033-.067-.05-.022-.01-.043-.024-.063-.03-.02-.005-.036-.014-.053-.016L4.39.984M4.2 4.29h.447v-.598h.3v-.15h-.3v-.597H4.2v.598H3.9v.15h.3v.597"
            fill="#fff" />
        <path d="M3.303 5.71h2.241M3.303 6.158h2.241" fill="none" stroke="#fff" stroke-width=".14947488"
            stroke-miterlimit="10" />
        <path
            d="M6.266 3.427a1.068 1.068 0 00-.197-.328 2.759 2.759 0 00-.254-.256 5.384 5.384 0 00-.254-.216 17.152 17.152 0 00-.73-.548l.13.107a18.268 18.268 0 01.567.48c.078.07.16.145.24.227.081.08.159.168.232.261.07.094.13.197.162.306.032.108.03.227.014.337a1.708 1.708 0 01-.081.332 2.017 2.017 0 01-.294.527c-.107.142-.214.311-.289.383-.04.037-.07-.152-.091.147H3.303v.15h2.241V5.14c0-.009.057-.016.066-.026.077-.08.205-.198.313-.356.11-.156.228-.354.3-.583.034-.113.067-.243.076-.36a.89.89 0 00-.033-.389"
            fill="#fff" />
    </g>
</svg>