<svg width="32" height="32" viewBox="0 0 8.467 8.467" xmlns="http://www.w3.org/2000/svg">
    <path fill="#fff"
        d="M2.09 5.34h4.624v.297H2.09zM1.635 5.012c-.15-.156-.454-.366-.601-.615a1.273 1.273 0 01-.12-1.088c.188-.526.738-.865 1.393-.865.222 0 .446.039.662.116.423.15.773.407.983.763.189.32.244.668.16.967h.107c.018 0 .027-.125.031-.2a1.409 1.409 0 00-.208-.809 1.931 1.931 0 00-.972-.799l-.064-.022c-.226-.08-.46-.12-.693-.12-.7 0-1.282.367-1.484.934-.135.377-.108.795.116 1.175.166.28.391.517.69.684v-.12" />
    <path
        d="M7.686 3.273c-.201-.567-.784-.934-1.484-.934a2.06 2.06 0 00-.657.108l-.036.011c-.446.159-.814.45-1.036.826-.158.27-.227.53-.207.807.005.075.017.199.035.199h.107c-.09-.3-.038-.641.154-.967.21-.356.558-.624.982-.775.215-.077.437-.11.658-.11.656 0 1.2.338 1.388.864.124.348.064.732-.144 1.084-.107.18-.282.34-.431.472v.13c.149-.146.394-.326.52-.54.223-.379.286-.797.151-1.175"
        fill="#fff" />
    <path d="M2.083 4.813h4.633M2.083 6.158h4.633M2.083 6.905h4.633" fill="none" stroke="#fff" stroke-width=".14947488"
        stroke-miterlimit="10" />
    <path
        d="M4.042 3.293c.156.264.224.546.208.82h.016c-.02-.276.049-.56.207-.829.222-.377.59-.667 1.036-.826.012-.004.08-.007.092-.01-.157-.513-.678-.887-1.127-.908v-.388h.3v-.3h-.3V.406h-.448v.448h-.299v.299h.3v.413a1.316 1.316 0 00-.97.923c.417.164.774.447.985.805"
        fill="#100f0d" />
    <path
        d="M6.716 4.887H2.083v-.149h4.633zm0 .748H2.083v-.3h4.633zm0 .597H2.083v-.15h4.633zm0 .747H2.083V6.83h4.633zm.874-3.675c-.188-.525-.732-.86-1.388-.86-.221 0-.443.039-.658.116-.424.15-.772.407-.982.763-.192.326-.244.668-.153.967h-.297c.084-.3.03-.647-.159-.967-.21-.356-.558-.624-.981-.775a1.949 1.949 0 00-.659-.11c-.656 0-1.2.343-1.387.868-.124.349-.1.736.108 1.09.147.248.452.46.601.616v2.416h.448v.299h4.483v-.3h.449V4.859c.149-.132.324-.29.431-.47.208-.353.267-.735.144-1.084"
        fill="#100f0d" />
</svg>