<svg width="32" height="32" viewBox="0 0 8.467 8.467" xmlns="http://www.w3.org/2000/svg">


    <g>
        <path
            d="M6.67 3.385c-.464-.732-1.592-1.591-2.426-1.751-.784-.151-1.343.052-1.343.052l-.763-.564-.06.885s-.734.97-.735 1.034c-.003.153-.08.503-.08.503l-.71 1.219-.235.15s.352 1.2.563 1.27c.211.07.317-.202.766.031.091.047.809-.949.809-.949s.88-.264 1.098-.718c.345.344.141 1.092-.579 1.42-.72.33-.74 1.61-.736 1.61h.614v.299h3.885v-.299h.558c.08-1.195.407-2.564-.626-4.192"
            fill="#100f0d" />
        <path
            d="M.549 5.29c-.024-.106-.045-.212-.067-.32L.48 4.958l.014-.005c.148-.051.297-.097.445-.145l-.018.014c.064-.106.127-.213.195-.317l.199-.315c.067-.104.131-.21.2-.313l.205-.31-.006.02c.009-.111.016-.222.027-.332l.033-.332.003-.024.022-.002c.124-.009.249-.016.373-.022.124-.007.248-.014.373-.018-.123.019-.247.034-.37.05-.124.017-.247.032-.37.046l.025-.026-.013.333c-.005.11-.013.221-.019.332v.01l-.006.01-.2.315c-.065.105-.135.208-.203.311l-.205.31c-.067.105-.139.207-.209.31l-.007.01-.011.003c-.151.038-.301.08-.453.114l.012-.018c.011.108.023.216.033.325M3.32 2.058l.077-.01a.798.798 0 01.093-.007.9.9 0 01.127 0c.19.005.465.038.778.142a3.587 3.587 0 011.88 1.462c.116.188.222.383.302.586.087.2.144.406.195.606.02.1.044.2.06.298.011.098.026.194.035.287l.02.273v.256a5.056 5.056 0 01-.026.445c-.017.131-.026.246-.043.34-.033.187-.054.292-.054.292s.005-.108.017-.296c.008-.094.006-.21.01-.34.003-.065-.002-.135-.004-.208-.003-.074 0-.15-.008-.23l-.018-.25-.033-.265c-.014-.09-.033-.182-.05-.277l-.066-.285A4.675 4.675 0 006.41 4.3a3.747 3.747 0 00-1.59-1.79 4.004 4.004 0 00-.462-.228 4.09 4.09 0 00-.413-.14 2.67 2.67 0 00-.548-.085H3.32"
            fill="#fff" />
    </g>
</svg>