<svg width="32" height="32" viewBox="0 0 8.467 8.467" xmlns="http://www.w3.org/2000/svg">
    <g>
        <path
            d="M6.839 6.83h-.3V5.487c0-.11-.021-.155-.105-.24-.084-.084-.174-.06-.284-.06h-.357v-1.77l.335-.472h.561V.852H5.643v.45h-.747v-.45H3.701v.45h-.598v-.45H1.908v2.093h.498l.548.589v1.652H2.5c-.112 0-.227-.022-.312.063-.085.085-.132.132-.132.243V6.83h-.299v1.046H6.69v-.299h.15V6.83"
            fill="#100f0d" />
        <path
            d="M2.54 5.294s.223-.04.557-.068c.167-.015.362-.028.571-.037.105-.003.212-.01.322-.01l.333-.004.332.004c.11 0 .218.007.322.01.21.008.404.021.571.037.335.028.557.068.557.068s-.222.04-.557.068c-.167.015-.362.028-.57.037-.105.003-.213.01-.323.01l-.332.003-.333-.004c-.11 0-.217-.007-.322-.01a11.485 11.485 0 01-.57-.036c-.335-.028-.558-.068-.558-.068M2.54 6.007s.223-.04.557-.068c.167-.016.362-.028.571-.036.105-.004.212-.01.322-.01l.333-.005.332.004c.11 0 .218.007.322.01.21.009.404.021.571.037.335.028.557.068.557.068s-.222.04-.557.068c-.167.016-.362.028-.57.036-.105.003-.213.01-.323.01l-.332.005-.333-.005c-.11 0-.217-.007-.322-.01-.209-.008-.404-.02-.57-.036-.335-.028-.558-.068-.558-.068M2.54 6.72s.23-.04.576-.068a12 12 0 01.59-.036c.108-.003.219-.01.333-.01l.343-.005.344.004c.113 0 .225.007.333.01.215.009.417.021.59.037.345.028.575.068.575.068s-.23.04-.575.068c-.173.016-.375.028-.59.037-.108.003-.22.01-.333.01l-.344.004-.343-.004c-.114 0-.225-.007-.334-.01a12.398 12.398 0 01-.59-.037C2.77 6.76 2.54 6.72 2.54 6.72M2.54 2.798s.23-.04.576-.068c.172-.015.374-.028.59-.036.108-.004.219-.01.333-.01l.343-.005.344.004c.113 0 .225.007.333.01.215.008.417.021.59.037.345.028.575.068.575.068s-.23.04-.575.068a11.79 11.79 0 01-.59.037c-.108.003-.22.01-.333.01l-.344.003c-.115 0-.23-.002-.343-.003-.114 0-.225-.008-.334-.01a12.217 12.217 0 01-.59-.037c-.345-.028-.575-.068-.575-.068"
            fill="#fff" />
    </g>
</svg>