<svg width="32" height="32" viewBox="0 0 8.467 8.467" xmlns="http://www.w3.org/2000/svg">

    <g>
        <path
            d="M7.487 1.182a.526.526 0 00-.526.526c0 .203.116.372.284.46l-1.342 2.57h-.005l.08-2.8c.005 0 .01.005.015.005a.525.525 0 10-.526-.524c0 .232.152.423.362.492l-.937 2.827h-.085l-.423-2.999A.522.522 0 004.306.7a.527.527 0 00-.526.527.52.52 0 00.449.513l-.424 2.999h-.054l-1-2.817A.522.522 0 002.62.891a.527.527 0 00-.022 1.051l.14 2.762L1.375 2.17a.524.524 0 00-.248-.987.526.526 0 10.119 1.04l.569 2.601v2.754h.15v.299h4.482v-.299h.299V5.393h.004l.634-3.17a.527.527 0 00.63-.515.526.526 0 00-.526-.526"
            fill="#100f0d" />
        <path d="M2.113 5.41h4.482M2.113 6.008h4.482" fill="none" stroke="#fff" stroke-width=".14947488"
            stroke-miterlimit="10" />
        <path d="M2.113 6.606h4.482" fill="none" stroke="#fff" stroke-width=".44832808" stroke-miterlimit="10" />
        <path d="M2.113 7.203h4.482" fill="none" stroke="#fff" stroke-width=".14947488" stroke-miterlimit="10" />
    </g>
</svg>