<svg width="32" height="32" viewBox="0 0 8.467 8.467" xmlns="http://www.w3.org/2000/svg">
    <g>
        <path
            d="M7.74 3.416c-.187-.525-.732-.86-1.388-.86-.221 0-.437.038-.653.115-.011.004-.029.01-.029.015v-.013c0-.04-.036-.097-.046-.12-.157-.512-.551-.88-1.149-.901v-.148h.299v-.3h-.299V.758h-.448v.448h-.3v.299h.3v.172c-.3.096-.808.44-.942.888-.003.009-.015.093-.033.14a1.839 1.839 0 00-.598-.123c-.655 0-1.195.327-1.383.852-.124.35-.172.729.036 1.082.147.25.38.453.529.609V7.779h.448v.3h4.483v-.3h.448V4.97c.15-.132.384-.3.506-.47.24-.333.343-.735.219-1.084"
            fill="#fff" />
        <path
            d="M7.172 4.258c-.086.12-.24.25-.408.359l-.048.024H4.98l-.02-.082c-.067-.306-.033-.556.106-.792.205-.347.49-.611.765-.708.171-.062.346-.092.52-.092.48 0 .872.23.999.587.068.191.001.455-.179.704m-.456.981H2.084v-.15H6.716zm0 .747H2.084v-.299h4.632zm0 .598H2.084v-.15h4.632zm0 .747H2.084v-.299h4.632zM1.458 4.3c-.11-.187-.108-.41.007-.73.125-.352.517-.578.998-.578.167 0 .357.06.52.119.299.106.585.352.765.658.138.235.173.484.11.796l-.017.076H1.714c-.09 0-.175-.204-.256-.341m1.733-1.601c.396.15.802.393 1.001.73.114.194.18.383.202.585.009 0 .017-.009.026-.009.02-.203.088-.41.203-.606.201-.342.495-.602.885-.768l.002-.014c.016 0 .048.077.07.077a2.37 2.37 0 00-.868.847c-.192.326-.244.802-.153 1.1h-.297c.084-.298.03-.767-.159-1.087a1.935 1.935 0 00-.95-.819c.016-.024.032-.036.038-.036m.9-.622l.073-.017.202-.02c.4-.023.63.19.678.364-.255.152-.47.347-.644.583a2.495 2.495 0 00-.75-.578c.112-.17.27-.29.44-.332m3.65 1.34c-.188-.526-.732-.862-1.388-.862-.22 0-.437.04-.653.116-.011.004-.029.01-.029.015v-.013c0-.04-.036-.097-.046-.12-.157-.512-.551-.88-1.15-.901v-.148h.3v-.3h-.3V.757h-.447v.449h-.3v.299h.3v.172c-.3.095-.808.44-.942.888-.003.009-.015.093-.033.14a1.84 1.84 0 00-.598-.123c-.655 0-1.196.327-1.383.852-.124.35-.172.729.036 1.082.147.249.38.453.529.609V7.779h.448v.3h4.483v-.3h.448V4.97c.15-.132.384-.3.506-.47.24-.333.343-.735.219-1.084"
            fill="#100f0d" />
    </g>
</svg>