<svg width="32" height="32" viewBox="0 0 7.7 8.467" xmlns="http://www.w3.org/2000/svg">

    <g>
        <path
            d="M6.285 5.246c.013.098.028.194.036.288l.02.273v.256a5.061 5.061 0 01-.026.444c-.017.132-.026.247-.043.34-.033.187-.054.293-.054.293s.005-.109.018-.297c.008-.094.006-.208.01-.34.002-.065-.002-.134-.004-.208-.004-.073 0-.15-.008-.23-.006-.08-.012-.163-.02-.25-.01-.085-.02-.174-.032-.264-.013-.09-.033-.183-.049-.277a130.28 130.28 0 01-.066-.285 4.587 4.587 0 00-.202-.576 3.746 3.746 0 00-1.59-1.79 4.038 4.038 0 00-.462-.228 4.075 4.075 0 00-.413-.141 2.636 2.636 0 00-.548-.084h-.078l.077-.01c.025-.004.057-.006.094-.007a.977.977 0 01.127-.001c.19.005.465.039.778.142a3.526 3.526 0 011.474.942c.146.16.285.334.405.52.116.189.223.384.303.586.087.2.143.407.195.606.02.101.043.2.058.298M3.93 1.984a2.855 2.855 0 00-.54-.052c-.362 0-.595.072-.598.073l-.204.067-.17-.13-.155-.117-.008.12-.008.123-.075.099a25.01 25.01 0 00-.66.901 4.879 4.879 0 01-.081.472l-.014.063-.033.056-.71 1.218-.011.018.235-.075c.062-.103.124-.207.189-.308l.199-.314c.066-.105.13-.21.2-.314l.2-.302c.009-.107.016-.213.026-.32l.033-.331.003-.025.022-.001c.124-.01.249-.017.373-.023.124-.006.248-.013.373-.017-.123.018-.247.034-.37.05-.116.015-.23.03-.346.042l-.012.31c-.005.111-.013.222-.019.332v.01l-.006.01-.2.315c-.065.106-.135.208-.203.312l-.205.31c-.068.105-.139.206-.21.309l-.007.01-.01.003-.3.077-.005.008-.052.034c.087.262.181.505.252.65a.916.916 0 01.51-.001c.144-.168.37-.463.553-.716l.082-.114.134-.04c.296-.09.755-.315.846-.503l.252-.523.411.41c.236.237.331.591.262.973A1.761 1.761 0 012.91 6.38c-.256.117-.393.504-.455.952h.31v.299h3.437l.039-.299h.44c.003 0 .006-.119.01-.154.1-1.052.213-2.27-.605-3.56-.4-.629-1.428-1.493-2.157-1.633"
            fill="#fff" />
        <path
            d="M6.69 7.177c-.002.035-.006.154-.01.154h-.439l-.039.3H2.766v-.3h-.31c.06-.448.198-.835.454-.952.502-.229.87-.712.962-1.22.07-.383-.026-.75-.262-.986l-.41-.417-.253.52c-.09.188-.55.411-.846.501l-.134.04-.082.113c-.182.253-.409.548-.553.716a.923.923 0 00-.51.002 6.035 6.035 0 01-.252-.651l.052-.034.005-.008a7.353 7.353 0 01-.14.035c.011.103.023.205.032.31-.024-.107-.045-.214-.067-.32L.45 4.965l.015-.005c.065-.023.131-.045.197-.066l.01-.018.711-1.218.033-.056.014-.063c.016-.075.063-.295.081-.472.104-.156.403-.563.66-.901l.075-.1.008-.123.008-.119.155.116.17.13.204-.066c.003-.001.236-.073.598-.073.18 0 .361.018.54.052.729.14 1.758 1.004 2.157 1.633.818 1.29.705 2.508.605 3.56m-.257-3.813c-.465-.732-1.592-1.628-2.427-1.788a3.265 3.265 0 00-.618-.058c-.443 0-.724.093-.724.093l-.764-.574-.058.88s-.735.968-.736 1.031c-.003.153-.08.503-.08.503l-.71 1.218-.236.149s.353 1.2.564 1.27c.026.009.05.013.073.013.109 0 .201-.078.36-.078a.727.727 0 01.34.098c.117 0 .802-.95.802-.95s.88-.265 1.098-.719c.345.345.141 1.166-.579 1.495-.72.33-.741 1.683-.736 1.683h.464v.299h4.1l.038-.299h.455c.079-1.195.407-2.638-.626-4.266"
            fill="#100f0d" />
        <path
            d="M.938 4.875l.007-.01c.07-.103.142-.204.21-.309l.204-.31c.068-.104.138-.206.204-.312l.199-.314.006-.01V3.6c.006-.111.014-.222.019-.333l.012-.31.346-.042c.123-.016.247-.032.37-.05-.125.004-.249.01-.373.017-.124.006-.249.014-.373.023l-.022.001-.003.025-.033.331c-.01.107-.017.213-.026.32l-.2.302c-.07.103-.134.21-.2.314l-.2.314c-.064.101-.126.205-.188.308l-.235.075-.198.066-.014.005.002.013c.022.107.043.214.067.32-.01-.103-.02-.206-.032-.31.047-.01.093-.022.14-.034l.3-.077.01-.003M5.73 3.756a3.9 3.9 0 00-.406-.52 3.55 3.55 0 00-1.474-.942 2.756 2.756 0 00-.778-.142.967.967 0 00-.127 0c-.037.003-.069.004-.094.008l-.077.01h.078a2.62 2.62 0 01.548.084c.125.036.265.08.413.141.146.062.303.135.46.227a3.741 3.741 0 011.59 1.79c.085.19.15.386.204.577l.066.285c.016.094.036.186.05.277l.032.265.019.249c.008.08.004.157.008.23.002.073.006.143.004.209-.005.13-.002.246-.01.34-.013.187-.018.296-.018.296s.022-.106.054-.293c.017-.093.027-.208.043-.34.014-.131.024-.281.027-.444l-.002-.256-.019-.273c-.008-.094-.024-.19-.035-.288-.016-.098-.04-.197-.059-.298a4.055 4.055 0 00-.195-.606 3.768 3.768 0 00-.303-.586"
            fill="#100f0d" />
    </g>
</svg>