<svg width="32" height="32" viewBox="0 0 8.467 8.467" xmlns="http://www.w3.org/2000/svg">
    <g>
        <path
            d="M6.69 6.618V5.175c0-.11-.178-.2-.288-.2h-.46v-1.82l.409-.256.338-.01V.79H5.494v.448h-.598V.791H3.701v.448h-.598V.791H1.908v2.092h.547l.499.338v1.754h-.2c-.45 0-.697.056-.697.205v1.438h-.299v.897h.15v.299h4.93V6.618H6.69"
            fill="#fff" />
        <path
            d="M6.39 7.366H2.206v-.15h.3V5.384c.149-.008.145-.11.258-.11h.489V3.083c.149.009.282.016.414.022.098.003.22.01.324.01l.324.004.318-.003c.103 0 .18-.008.278-.01.165-.008.284-.018.434-.03v2.198h.896v1.942h.15zM2.455 2.435h.05V1.09h.3V1.538H4.148V1.09h.299V1.538h1.644V1.09h.298v1.396h-.057l-.11.003-.09.043-.532.255-.256.115v.024c-.15-.013-.266-.023-.432-.03-.098-.003-.186-.01-.289-.01l-.306-.004-.309.004c-.103 0-.203.007-.301.01a10.21 10.21 0 00-.484.032l-.06-.043-.471-.354-.107-.096zm4.234 4.183V5.175c0-.11-.177-.2-.287-.2h-.46v-1.82l.409-.256.338-.01V.79H5.494v.448h-.598V.791H3.701v.448h-.598V.791H1.908v2.092h.547l.499.338v1.754h-.2c-.45 0-.697.056-.697.205v1.438h-.299v.897h.15v.299h4.93V6.618H6.69"
            fill="#100f0d" />
        <path
            d="M3.79 5.77c.094.002.19.008.288.009l.297.003c.1 0 .2-.002.297-.003.098 0 .195-.007.288-.01a9.97 9.97 0 00.51-.032c.298-.025.497-.061.497-.061s-.199-.036-.497-.06a9.98 9.98 0 00-.51-.033c-.093-.003-.19-.01-.288-.01l-.297-.003-.297.004c-.098 0-.194.006-.287.009-.187.007-.361.019-.51.033-.299.025-.498.06-.498.06s.2.036.498.06c.149.014.323.026.51.033M3.79 6.406c.094.003.19.009.288.01l.297.003.297-.004c.098 0 .195-.006.288-.009.187-.007.36-.019.51-.032.298-.026.497-.061.497-.061s-.199-.036-.497-.061c-.15-.014-.323-.025-.51-.033-.093-.002-.19-.009-.288-.009l-.297-.003-.297.003c-.098.001-.194.007-.287.01-.187.007-.361.019-.51.032-.299.025-.498.06-.498.06s.2.036.498.062c.149.013.323.025.51.032M5.032 6.856c-.096-.002-.196-.009-.297-.009l-.307-.003-.306.003c-.102 0-.201.007-.298.01-.193.007-.373.018-.527.032-.308.025-.514.06-.514.06s.206.036.514.061c.154.014.334.025.527.033.097.003.196.009.298.01l.306.003.307-.004c.101 0 .2-.006.297-.009.193-.007.373-.019.527-.032.309-.026.514-.061.514-.061s-.205-.036-.514-.061a10.667 10.667 0 00-.527-.033"
            fill="#100f0d" />
    </g>
</svg>