<svg width="32" height="32" viewBox="0 0 8.767 8.467" xmlns="http://www.w3.org/2000/svg">
   <g>
      <path
         d="M6.952 7.298c0-1.134-.54-2.18-1.42-2.643.323-.263.526-.681.526-1.101 0-.571-.355-1.106-.895-1.34a.87.87 0 00.204-.587.928.928 0 00-.924-.929.922.922 0 00-.701 1.52c-.54.233-.914.725-.914 1.295 0 .42.203.88.525 1.142-.88.463-1.402 1.49-1.402 2.624l.194.161v.36H6.72l-.006-.39.238-.112"
         fill="#fff" />
      <path
         d="M2.593 7.5v-.149H6.3l.001.15zm.957-2.48c.536-.281 1.552-.207 2.04.134.28.197.554.489.692.797.046.103.324 1.07.25 1.112l-.035.002-.074-.013H2.401l-.036.01c.053-.916.503-1.683 1.185-2.041m-.31-1.508c0-.388.255-.739.631-.927.399-.2.735-.162 1.128.008.387.166.646.552.646.96 0 .294-.143.6-.374.788l-.383.32H4l-.384-.32c-.22-.18-.375-.524-.375-.829M4.443 1.11c.282 0 .511.232.511.517a.454.454 0 01-.104.316l-.284.328h-.23l-.28-.324a.496.496 0 01-.125-.33c0-.28.23-.507.512-.507m2.51 6.188c0-1.134-.54-2.18-1.42-2.643.322-.263.525-.681.525-1.101 0-.571-.355-1.106-.895-1.339a.87.87 0 00.204-.588.928.928 0 00-.924-.929.922.922 0 00-.701 1.52c-.54.233-.914.725-.914 1.295 0 .42.203.88.525 1.143-.88.462-1.402 1.489-1.402 2.623l.194.161v.36H6.72l-.006-.39.238-.112"
         fill="#100f0d" />
   </g>
</svg>