<svg width="32" height="32" viewBox="0 0 8.467 8.467" xmlns="http://www.w3.org/2000/svg">
    <g>
        <path
            d="M3.62 3.147h.449V2.7h.299v.448h.298v.299h-.298v.598h-.3v-.598H3.62zm1.543 1.495l.038-.016c.492-.278.745-.682.695-1.114-.047-.405-.59-.994-1.384-1.502l-.222-.142-.222.14c-1.215.765-1.503 1.239-1.53 1.501-.049.474.154.878.537 1.138l.097.053v-.058h1.991M3.172 6.285h.066l.204-.047.194.257a.39.39 0 01.023.261c-.01.042-.064.127-.25.276h1.28s-.126-.126-.13-.303c-.003-.177.107-.468.406-.516v-.227H3.172v.3M2.523 7.331c-.005 0 .051-.021.051.019v.13h3.437v-.126l-.1-.023H2.523M5.127 6.605c-.057.01-.068.013-.06.013l.053-.005.007-.008M4.965 4.991v-.2H3.172v.448h1.793v-.248"
            fill="#fff" />
        <path d="M3.172 5.613h1.793" fill="none" stroke="#fff" stroke-width=".44832808" stroke-miterlimit="10" />
        <path
            d="M4.292 1.55l.125-.15c.058-.07.071-.114.071-.124 0-.11-.077-.194-.18-.194a.188.188 0 00-.187.194c0 .053.025.096.047.122l.124.152"
            fill="#fff" />
        <path d="M3.238 6.2s0 0 0 0" fill="none" stroke="#100f0d" stroke-linecap="round" stroke-linejoin="round"
            stroke-width=".09656" />
        <path d="M4.069 4.044h.299v-.598h.298v-.299h-.298V2.7h-.3v.448H3.62v.299h.449v.598" fill="#100f0d" />
        <path
            d="M6.758 7.251c0 .028-.018.047-.019.062-.003.014-.01.021-.01.021l-.009-.02c-.005-.014-.01-.036-.02-.059l-.018-.036-.024-.04a.395.395 0 00-.074-.075.453.453 0 00-.108-.056c-.04-.017-.087-.025-.134-.035a1.583 1.583 0 00-.317-.007c-.057.003-.106.011-.169.017-.009 0-.02 0-.029.002a1.57 1.57 0 01-.25 0 .642.642 0 01-.22-.052.362.362 0 01-.116-.072.208.208 0 01-.06-.088.141.141 0 01-.007-.066l.004-.022.007.02c.005.013.016.03.031.047.032.035.093.059.173.067.08.008.176.002.28-.01.053-.005.101-.016.16-.025.054-.009.12-.02.182-.023a.98.98 0 01.373.036c.059.018.115.042.164.075a.439.439 0 01.16.174c.008.023.026.043.031.062.004.02.02.039.02.055zm-.747.103v.127H2.574v-.132c0-.04-.056-.018-.05-.018H6.01zm-3.803-.353a1.194 1.194 0 00-.154.012c-.047.01-.094.018-.134.035a.456.456 0 00-.108.056.398.398 0 00-.073.076l-.025.04-.016.035c-.011.023-.015.045-.02.058l-.006.021s.009-.007.005-.021v-.11c0-.016-.004-.035 0-.055.005-.02.008-.04.017-.062.01-.02.02-.041.035-.063a.435.435 0 01.12-.111.624.624 0 01.164-.075.973.973 0 01.372-.037c.062.004.128.015.181.024.06.01.108.02.161.025.104.012.2.018.28.01.08-.008.14-.032.173-.067a.156.156 0 00.039-.067s0 .008.003.022a.14.14 0 01-.006.066.207.207 0 01-.06.088.364.364 0 01-.118.072.64.64 0 01-.219.052 1.565 1.565 0 01-.25 0l-.03-.002c-.062-.006-.111-.014-.168-.017a1.58 1.58 0 00-.163-.005m.964-1.762v-.448h1.793v.448zm0 .15h1.793v.448H3.172zm1.387 1.34c.004.177.13.303.13.303H3.41c.186-.15.24-.245.25-.286.023-.092-.023-.202-.098-.33-.113-.195-.389-.216-.389-.216v-.214h1.793v.227c-.299.05-.41.339-.406.516m-2.021-3.22c.027-.262.315-.735 1.53-1.5l.222-.14.222.142c.794.508 1.337 1.099 1.384 1.504.05.432-.203.84-.695 1.117l-.038.02-2.1-.001-.006-.004c-.384-.26-.568-.664-.52-1.138m1.77-2.427c.104 0 .181.083.181.194 0 .01-.013.054-.07.123l-.126.15-.124-.15a.194.194 0 01-.047-.123c0-.109.082-.194.187-.194m2.571 5.704a.835.835 0 00-.64-.256c-.1 0-.206.01-.332.025-.222.027-.493.041-.493.049V4.99c.597-.35.968-.904.897-1.524a1.322 1.322 0 00-.194-.517 1.183 1.183 0 00-.167-.255 3.021 3.021 0 00-.13-.14c-.327-.363-.755-.68-1.085-.891.087-.106.166-.24.166-.388a.595.595 0 10-1.193 0c0 .145.055.279.14.384-.591.372-1.621 1.078-1.697 1.807-.063.62.274 1.172.722 1.522v1.623s-.019.003-.011.006l-.121-.011a4.79 4.79 0 00-.501-.036c-.263 0-.506.047-.683.217-.254.244-.26.585-.241.831 0 0 .175.065.353.065s.356-.064.365-.32c.02-.021-.029-.028-.018-.028.016 0-.04.013-.04.013v.58h4.308v-.535c.103.002.166.072.159.169a.647.647 0 00.43.149c.14 0 .268-.047.365-.098.019-.246-.104-.584-.359-.828"
            fill="#100f0d" />
        <path
            d="M2.819 7.025a.644.644 0 00.22-.052.364.364 0 00.116-.072.207.207 0 00.06-.088.141.141 0 00.007-.066 1.105 1.105 0 00-.003-.022l-.008.02a.154.154 0 01-.031.047c-.032.035-.093.059-.173.067-.08.008-.176.002-.28-.01-.053-.005-.101-.016-.16-.025-.054-.008-.12-.02-.182-.023a.982.982 0 00-.373.036.628.628 0 00-.164.075.442.442 0 00-.16.174c-.008.023-.006.043-.01.062-.005.02 0 .039 0 .055v.048c0 .028-.002.047 0 .062.002.014-.001.021-.001.021s0-.007.004-.02c.005-.014.007-.036.018-.059l.016-.036.024-.04a.39.39 0 01.073-.075.477.477 0 01.108-.056c.04-.017.087-.025.134-.035a1.541 1.541 0 01.317-.007c.057.003.106.011.168.016l.03.003a1.579 1.579 0 00.25 0M5.827 7.025l.03-.003c.062-.005.111-.013.168-.016a1.545 1.545 0 01.317.007c.047.01.094.018.134.035a.47.47 0 01.108.056c.03.024.054.049.073.076l.025.04.016.035c.011.023.015.045.02.058l.006.021s.012-.007.015-.021c.001-.015.02-.034.02-.062v-.048c0-.016-.016-.035-.02-.055-.005-.02-.018-.04-.027-.062-.01-.02-.025-.041-.04-.063a.443.443 0 00-.123-.111.633.633 0 00-.165-.075.981.981 0 00-.373-.036c-.061.003-.128.015-.181.023-.06.01-.108.02-.161.025-.104.012-.2.018-.28.01-.08-.008-.14-.032-.173-.067a.157.157 0 01-.031-.047l-.007-.02-.004.022a.143.143 0 00.006.066c.01.027.029.062.061.088.03.028.07.055.117.072a.647.647 0 00.219.052 1.574 1.574 0 00.25 0"
            fill="#fff" />
    </g>

</svg>