<svg width="32" height="32" viewBox="0 0 8.467 8.467" xmlns="http://www.w3.org/2000/svg">
    <g>
        <path
            d="M7.575 1.19a.526.526 0 00-.526.526c0 .203.078.377.246.465L5.941 4.945l.125-2.89c.005 0 .01-.05.015-.05.29 0 .526-.261.526-.552 0-.29-.236-.539-.526-.539a.52.52 0 00-.526.52c0 .232.152.517.362.586L4.98 4.94h-.085l-.424-3.095c.254-.038.45-.3.45-.564 0-.29-.236-.55-.527-.55a.516.516 0 00-.526.515c0 .264.195.567.448.604l-.423 3.09h-.055l-.99-3.014c.226-.058.385-.208.385-.452 0-.291-.235-.55-.526-.55a.516.516 0 00-.021 1.033l.133 2.947-.1-.013L1.255 2.18a.525.525 0 10-.774-.458c0 .29.236.53.526.53h.01v-.006c-.007-.002-.024-.008-.002-.013l.002.01h-.015l.647 3.03v2.657h.299v.15h4.438l.012-.15h.182V5.4l.816-3.169c.033.007.106.01.14.01.291 0 .546-.235.546-.526a.51.51 0 00-.507-.526"
            fill="#fff" />
        <path
            d="M7.549 1.83a.512.512 0 01-.052-.003l-.015-.003a.34.34 0 01-.021-.108c0-.062.05-.113.114-.113.066 0 .1.057.1.113 0 .06-.06.114-.126.114M2.44 5.255l.002-.016h-.352l-.165-.849zm.365-3.705l-.103-.005c-.054-.002-.11-.039-.11-.105s.058-.1.114-.1.114.071.114.139a.185.185 0 01-.015.07m.642 3.53l.06.16h-.26l-.017-.37-.022-.489zm.854-.077l.092-.668.092.664.035.241h-.254zM4.28 1.248c0-.067.058-.101.114-.101.055 0 .114.071.114.14 0 .081-.07.157-.097.16l-.031.006a.304.304 0 01-.1-.205m2.297 3.134l-.202.857h-.25zm-1.204.69l.215-.666-.015.525-.008.308h-.25zm.708-3.745c.06 0 .113.06.113.126 0 .068-.058.14-.113.14a.385.385 0 00-.06.004.349.349 0 01-.054-.163c0-.061.049-.107.114-.107m.2 6.154H2.097v-.449h4.184zm0-.748H2.097v-.448h4.184zm0-.747H2.097v-.299h4.184zm-5.19-4.194l-.13.028a.113.113 0 01.046-.217c.063 0 .114.051.114.114a.106.106 0 01-.03.075m6.484-.602a.526.526 0 00-.526.526c0 .203.078.377.246.465L5.941 4.945l.125-2.89c.005 0 .01-.05.015-.05.29 0 .526-.262.526-.552 0-.29-.236-.539-.526-.539a.52.52 0 00-.526.52c0 .232.152.517.362.586L4.98 4.94h-.085l-.424-3.095c.254-.038.45-.3.45-.564 0-.29-.236-.55-.527-.55a.516.516 0 00-.526.515c0 .264.195.567.448.605l-.423 3.09h-.055l-.99-3.014c.226-.06.385-.209.385-.453 0-.291-.235-.55-.526-.55a.516.516 0 00-.021 1.033l.133 2.947-.1-.013L1.255 2.18a.525.525 0 10-.774-.458c0 .29.236.53.526.53h.01v-.006c-.007-.002-.024-.008-.002-.013l.002.01h-.015l.647 3.03v2.657h.299v.15h4.438l.012-.15h.182V5.4l.816-3.169a.98.98 0 00.14.01c.291 0 .546-.235.546-.526a.51.51 0 00-.507-.526"
            fill="#100f0d" />
    </g>
</svg>