<svg xmlns="http://www.w3.org/2000/svg" viewBox="0 0 48 48" width="512px" height="512px">

    <g id="bk" transform="translate(-3,-3.5)">
        <path fill="#455A64"
            d="M21 23c0 10-3 13-3 13h12c0 0-3-3-3-13M35 44H13v-2c0-2.209 1.791-4 4-4h14c2.209 0 4 1.791 4 4V44zM27 21c0 .553-6 .553-6 0l-3-10c0-.553.447-1 1-1h10c.553 0 1 .447 1 1L27 21z" />
        <g>
            <path fill="#FFCA28"
                d="M27 8c0 .553-.447 1-1 1h-4c-.553 0-1-.447-1-1V7c0-.553.447-1 1-1h4c.553 0 1 .447 1 1V8zM32 37c0 .553-.447 1-1 1H17c-.553 0-1-.447-1-1l0 0c0-.553.447-1 1-1h14C31.553 36 32 36.447 32 37L32 37zM29 22c0 .553-.447 1-1 1h-8c-.553 0-1-.447-1-1l0 0c0-.553.447-1 1-1h8C28.553 21 29 21.447 29 22L29 22z" />
            <path fill="#FFCA28" d="M25,10V5c0-0.553-0.447-1-1-1c-0.553,0-1,0.447-1,1v5H25z" />
        </g>
    </g>
    <g id="bq" transform="translate(-3,-3.5)">
        <path fill="#263238" d="M24,8c-2.762,0-5,2.238-5,5h10C29,10.238,26.762,8,24,8z" />
        <path fill="#455A64"
            d="M21 23c0 10-3 13-3 13h12c0 0-3-3-3-13M35 44H13v-2c0-2.209 1.791-4 4-4h14c2.209 0 4 1.791 4 4V44zM27 21c0 .553-6 .553-6 0l-4-11c0 0 2.501 2 3.501 2S24 10 24 10s2.334 2 3.334 2S31 10 31 10L27 21z" />
        <g>
            <path fill="#FFCA28"
                d="M24 4A2 2 0 1 0 24 8 2 2 0 1 0 24 4zM32 37c0 .553-.447 1-1 1H17c-.553 0-1-.447-1-1l0 0c0-.553.447-1 1-1h14C31.553 36 32 36.447 32 37L32 37zM29 22c0 .553-.447 1-1 1h-8c-.553 0-1-.447-1-1l0 0c0-.553.447-1 1-1h8C28.553 21 29 21.447 29 22L29 22z" />
        </g>
    </g>
    <g id="bb" transform="translate(-3,-3.5)">
        <path fill="#455A64"
            d="M24 7c0 0-1.325 1.32-2.729 3.059l4.543 6.36-1.627 1.162-4.179-5.851C18.903 13.309 18 14.989 18 16.273c0 3.313 2.687 6 6 6 3.313 0 6-2.688 6-6C30 12.96 24 7 24 7zM21 23c0 10-3 13-3 13h12c0 0-3-3-3-13M35 44H13v-2c0-2.209 1.791-4 4-4h14c2.209 0 4 1.791 4 4V44z" />
        <g>
            <path fill="#FFCA28"
                d="M29 22c0 .553-.447 1-1 1h-8c-.553 0-1-.447-1-1l0 0c0-.553.447-1 1-1h8C28.553 21 29 21.447 29 22L29 22zM32 37c0 .553-.447 1-1 1H17c-.553 0-1-.447-1-1l0 0c0-.553.447-1 1-1h14C31.553 36 32 36.447 32 37L32 37zM24 4A2 2 0 1 0 24 8 2 2 0 1 0 24 4z" />
        </g>
    </g>
    <g id="bn" transform="translate(-3,-3.5)">
        <path fill="#FFCA28"
            d="M34,36c0,0.553-0.447,1-1,1H16c-0.553,0-1-0.447-1-1l0,0c0-0.553,0.447-1,1-1h17C33.553,35,34,35.447,34,36L34,36z" />
        <path fill="#455A64" d="M37 43H12v-2c0-2.209 1.791-4 4-4h17c2.209 0 4 1.791 4 4V43zM25 10V5c0 0-4 1-5 5" />
        <path fill="#455A64"
            d="M17,35c0-6-4-7-4-15c0-10,9-11,10-11s3,0,5,1l1,2c0,0,5,4,6,7l-3.057,2.118C31.943,21.118,26,18,24,19s8,9,8,16" />
        <path fill="#455A64" d="M27 15A3 2.5 0 1 0 27 20A3 2.5 0 1 0 27 15Z" />
    </g>
    <g id="br" transform="translate(-3,-3.5)">
        <path fill="#FFCA28"
            d="M32 34c0 .553-.447 1-1 1H17c-.553 0-1-.447-1-1l0 0c0-.553.447-1 1-1h14C31.553 33 32 33.447 32 34L32 34zM29 17c0 .553-.447 1-1 1h-8c-.553 0-1-.447-1-1l0 0c0-.553.447-1 1-1h8C28.553 16 29 16.447 29 17L29 17z" />
        <g>
            <path fill="#455A64"
                d="M21 18c0 10-3 15-3 15h12c0 0-3-5-3-15M35 41H13v-2c0-2.209 1.791-4 4-4h14c2.209 0 4 1.791 4 4V41zM29 7v4c0 .553-.447 1-1 1h-1c-.553 0-1-.447-1-1V7h-4v4c0 .553-.447 1-1 1h-1c-.553 0-1-.447-1-1V7h-3v8c0 .553.447 1 1 1h14c.553 0 1-.447 1-1V7H29z" />
        </g>
    </g>
    <g id="bp" transform="translate(-3,-3.5)">
        <path fill="#455A64"
            d="M21 19c0 10-5 12-5 12h16c0 0-5-2-5-12M37 40H11v-3c0-2.209 1.791-4 4-4h18c2.209 0 4 1.791 4 4V40zM24 8A5 5 0 1 0 24 18 5 5 0 1 0 24 8z" />
        <g>
            <path fill="#FFCA28"
                d="M34 32c0 .553-.447 1-1 1H15c-.553 0-1-.447-1-1l0 0c0-.553.447-1 1-1h18C33.553 31 34 31.447 34 32L34 32zM29 18c0 .553-.447 1-1 1h-8c-.553 0-1-.447-1-1l0 0c0-.553.447-1 1-1h8C28.553 17 29 17.447 29 18L29 18z" />
        </g>
    </g>
    <g id="wk" transform="translate(-3,-3.5)">
        <path fill="#98b1bc"
            d="M21 23c0 10-3 13-3 13h12c0 0-3-3-3-13M35 44H13v-2c0-2.209 1.791-4 4-4h14c2.209 0 4 1.791 4 4V44zM27 21c0 .553-6 .553-6 0l-3-10c0-.553.447-1 1-1h10c.553 0 1 .447 1 1L27 21z" />
        <g>
            <path fill="#FFCA28"
                d="M27 8c0 .553-.447 1-1 1h-4c-.553 0-1-.447-1-1V7c0-.553.447-1 1-1h4c.553 0 1 .447 1 1V8zM32 37c0 .553-.447 1-1 1H17c-.553 0-1-.447-1-1l0 0c0-.553.447-1 1-1h14C31.553 36 32 36.447 32 37L32 37zM29 22c0 .553-.447 1-1 1h-8c-.553 0-1-.447-1-1l0 0c0-.553.447-1 1-1h8C28.553 21 29 21.447 29 22L29 22z" />
            <path fill="#FFCA28" d="M25,10V5c0-0.553-0.447-1-1-1c-0.553,0-1,0.447-1,1v5H25z" />
        </g>
    </g>
    <g id="wq" transform="translate(-3,-3.5)">
        <path fill="#60848e" d="M24,8c-2.762,0-5,2.238-5,5h10C29,10.238,26.762,8,24,8z" />
        <path fill="#98b1bc"
            d="M21 23c0 10-3 13-3 13h12c0 0-3-3-3-13M35 44H13v-2c0-2.209 1.791-4 4-4h14c2.209 0 4 1.791 4 4V44zM27 21c0 .553-6 .553-6 0l-4-11c0 0 2.501 2 3.501 2S24 10 24 10s2.334 2 3.334 2S31 10 31 10L27 21z" />
        <g>
            <path fill="#FFCA28"
                d="M24 4A2 2 0 1 0 24 8 2 2 0 1 0 24 4zM32 37c0 .553-.447 1-1 1H17c-.553 0-1-.447-1-1l0 0c0-.553.447-1 1-1h14C31.553 36 32 36.447 32 37L32 37zM29 22c0 .553-.447 1-1 1h-8c-.553 0-1-.447-1-1l0 0c0-.553.447-1 1-1h8C28.553 21 29 21.447 29 22L29 22z" />
        </g>
    </g>
    <g id="wb" transform="translate(-3,-3.5)">
        <path fill="#98b1bc"
            d="M24 7c0 0-1.325 1.32-2.729 3.059l4.543 6.36-1.627 1.162-4.179-5.851C18.903 13.309 18 14.989 18 16.273c0 3.313 2.687 6 6 6 3.313 0 6-2.688 6-6C30 12.96 24 7 24 7zM21 23c0 10-3 13-3 13h12c0 0-3-3-3-13M35 44H13v-2c0-2.209 1.791-4 4-4h14c2.209 0 4 1.791 4 4V44z" />
        <g>
            <path fill="#FFCA28"
                d="M29 22c0 .553-.447 1-1 1h-8c-.553 0-1-.447-1-1l0 0c0-.553.447-1 1-1h8C28.553 21 29 21.447 29 22L29 22zM32 37c0 .553-.447 1-1 1H17c-.553 0-1-.447-1-1l0 0c0-.553.447-1 1-1h14C31.553 36 32 36.447 32 37L32 37zM24 4A2 2 0 1 0 24 8 2 2 0 1 0 24 4z" />
        </g>
    </g>
    <g id="wn" transform="translate(-3,-3.5)">
        <path fill="#FFCA28"
            d="M34,36c0,0.553-0.447,1-1,1H16c-0.553,0-1-0.447-1-1l0,0c0-0.553,0.447-1,1-1h17C33.553,35,34,35.447,34,36L34,36z" />
        <path fill="#98b1bc" d="M37 43H12v-2c0-2.209 1.791-4 4-4h17c2.209 0 4 1.791 4 4V43zM25 10V5c0 0-4 1-5 5" />
        <path fill="#98b1bc"
            d="M17,35c0-6-4-7-4-15c0-10,9-11,10-11s3,0,5,1l1,2c0,0,5,4,6,7l-3.057,2.118C31.943,21.118,26,18,24,19s8,9,8,16" />
        <path fill="#98b1bc" d="M27 15A3 2.5 0 1 0 27 20A3 2.5 0 1 0 27 15Z" />
    </g>
    <g id="wr" transform="translate(-3,-3.5)">
        <path fill="#FFCA28"
            d="M32 34c0 .553-.447 1-1 1H17c-.553 0-1-.447-1-1l0 0c0-.553.447-1 1-1h14C31.553 33 32 33.447 32 34L32 34zM29 17c0 .553-.447 1-1 1h-8c-.553 0-1-.447-1-1l0 0c0-.553.447-1 1-1h8C28.553 16 29 16.447 29 17L29 17z" />
        <g>
            <path fill="#98b1bc"
                d="M21 18c0 10-3 15-3 15h12c0 0-3-5-3-15M35 41H13v-2c0-2.209 1.791-4 4-4h14c2.209 0 4 1.791 4 4V41zM29 7v4c0 .553-.447 1-1 1h-1c-.553 0-1-.447-1-1V7h-4v4c0 .553-.447 1-1 1h-1c-.553 0-1-.447-1-1V7h-3v8c0 .553.447 1 1 1h14c.553 0 1-.447 1-1V7H29z" />
        </g>
    </g>
    <g id="wp" transform="translate(-3,-3.5)">
        <path fill="#98b1bc"
            d="M21 19c0 10-5 12-5 12h16c0 0-5-2-5-12M37 40H11v-3c0-2.209 1.791-4 4-4h18c2.209 0 4 1.791 4 4V40zM24 8A5 5 0 1 0 24 18 5 5 0 1 0 24 8z" />
        <g>
            <path fill="#FFCA28"
                d="M34 32c0 .553-.447 1-1 1H15c-.553 0-1-.447-1-1l0 0c0-.553.447-1 1-1h18C33.553 31 34 31.447 34 32L34 32zM29 18c0 .553-.447 1-1 1h-8c-.553 0-1-.447-1-1l0 0c0-.553.447-1 1-1h8C28.553 17 29 17.447 29 18L29 18z" />
        </g>
    </g>
</svg>