<svg version="1.0" xmlns="http://www.w3.org/2000/svg" viewBox="0 0 64 64">

    <g id="bp" transform="translate(9,113) scale(0.015,-0.015)" fill="#000000" stroke-width="8" stroke="white">
        <path
            d="M671 7209 c-25 -5 -78 -24 -118 -43 -322 -153 -397 -580 -146 -833 33 -34 76 -69 94 -78 l32 -17 -6 -132 c-10 -216 -49 -362 -117 -440 -44 -49 -87 -70 -190 -90 -138 -28 -185 -73 -209 -201 -16 -87 -14 -300 3 -314 9 -8 220 -10 772 -9 l759 3 3 154 c3 172 -9 237 -54 291 -36 42 -66 56 -175 80 -106 23 -157 52 -194 109 -53 85 -88 243 -99 441 l-6 105 45 28 c61 39 148 136 179 199 101 209 63 442 -99 603 -124 125 -300 178 -474 144z" />
    </g>
    <g id="br" transform="translate(-22,113) scale(0.015,-0.015)" fill="#000000" stroke-width="8" stroke="white">
        <path
            d="M2032 7208 c-23 -23 -6 -778 23 -1023 56 -478 184 -783 431 -1031 78 -78 286 -234 313 -234 14 0 185 118 253 174 76 63 180 181 239 271 154 235 239 541 268 960 17 251 25 849 12 874 -12 21 -17 21 -159 19 l-147 -3 -3 -122 -3 -123 -149 0 -150 0 0 113 c0 75 -4 117 -12 125 -17 17 -279 17 -296 0 -8 -8 -12 -50 -12 -125 l0 -113 -150 0 -150 0 0 113 c0 75 -4 117 -12 125 -8 8 -56 12 -148 12 -92 0 -140 -4 -148 -12z" />
    </g>
    <g id="bn" transform="translate(-50,104) scale(0.014,-0.014)" fill="#000000" stroke-width="8" stroke="white">
        <path
            d="M5160 7206 c-154 -34 -295 -109 -425 -228 -65 -59 -155 -163 -155 -180 0 -6 34 -45 76 -88 l75 -78 -250 -233 c-141 -132 -251 -242 -251 -251 0 -17 176 -229 241 -290 l28 -27 156 53 c85 29 152 49 148 45 -5 -3 -64 -52 -133 -107 -238 -189 -327 -306 -382 -497 -20 -70 -23 -102 -23 -265 0 -160 3 -198 23 -280 13 -52 31 -111 40 -130 l17 -35 761 -3 c871 -2 804 -11 734 90 -50 70 -103 183 -121 258 -18 74 -15 248 5 338 24 110 57 202 171 477 150 364 178 463 179 630 0 160 -34 263 -141 423 -114 172 -274 303 -438 357 -98 33 -237 42 -335 21z" />
    </g>
    <g id="bb" transform="translate(-90,87) scale(0.015,-0.012)" fill="#000000" stroke-width="8" stroke="white">
        <path
            d="M7083 6957 c-175 -146 -324 -271 -331 -279 -10 -12 1 -54 59 -219 39 -112 91 -263 116 -336 l46 -132 -47 -52 c-56 -62 -109 -169 -132 -264 -19 -82 -14 -241 10 -318 24 -77 83 -180 137 -241 l51 -56 -30 0 c-42 0 -215 -36 -243 -50 -83 -43 -79 -96 12 -134 49 -20 184 -44 312 -55 60 -5 111 -11 113 -14 8 -8 -17 -112 -40 -162 -35 -76 -73 -101 -211 -134 -221 -55 -260 -111 -272 -393 -5 -112 -3 -151 7 -163 11 -13 101 -15 776 -15 l764 0 6 27 c12 44 -4 304 -21 361 -18 61 -62 115 -116 142 -20 11 -79 28 -129 40 -114 24 -171 56 -205 114 -23 39 -60 174 -50 184 2 2 54 8 115 13 200 16 358 57 380 100 15 28 -4 64 -45 83 -40 19 -202 56 -247 56 -16 0 -28 3 -28 6 0 3 20 28 45 56 53 59 98 136 126 215 30 83 37 256 15 343 -23 91 -75 195 -130 263 -26 31 -44 61 -41 67 3 5 23 60 45 122 21 62 70 205 109 317 39 112 71 208 71 215 0 12 -644 549 -664 554 -8 2 -157 -116 -333 -261z m337 -547 l-4 -155 -7 150 c-4 83 -7 155 -7 160 0 6 3 51 6 100 l7 90 5 -95 c3 -52 3 -165 0 -250z" />
    </g>
    <g id="bq" transform="translate(-105,73) scale(0.013,-0.010)" fill="#000000" stroke-width="8" stroke="white">
        <path
            d="M9695 7210 c-4 -6 -40 -132 -80 -281 -40 -149 -75 -273 -78 -275 -2 -3 -67 38 -143 90 -135 93 -166 107 -179 85 -4 -5 -15 -113 -24 -239 -10 -127 -20 -232 -22 -235 -3 -2 -57 4 -120 15 -63 11 -129 20 -148 20 -32 0 -33 -1 -28 -32 2 -18 72 -188 154 -378 l150 -345 -18 -30 c-9 -16 -30 -66 -44 -110 -22 -65 -27 -98 -28 -180 0 -171 54 -311 165 -431 l58 -61 -112 -17 c-133 -21 -213 -49 -235 -82 -15 -24 -15 -27 4 -52 36 -48 184 -86 391 -99 l102 -6 0 -32 c0 -60 -50 -229 -94 -320 -51 -106 -98 -171 -229 -317 -177 -199 -199 -248 -195 -438 l3 -125 770 0 770 0 0 140 c0 191 -4 199 -219 441 -101 114 -179 233 -224 342 -36 89 -78 271 -68 297 4 10 20 15 53 15 121 0 341 39 405 71 75 38 55 101 -42 132 -27 9 -96 24 -154 33 l-106 17 38 41 c90 98 145 202 167 321 27 139 13 258 -46 385 l-31 68 156 363 c86 199 155 368 152 376 -7 18 -51 16 -185 -7 -63 -11 -116 -18 -118 -17 -1 2 -10 102 -18 223 -20 264 -20 264 -46 264 -11 0 -84 -43 -160 -96 -77 -53 -142 -94 -144 -92 -2 2 -36 125 -76 273 -39 149 -76 276 -82 283 -12 15 -33 16 -42 2z" />

    </g>
    <g id="bk" transform="translate(-123,66) scale(0.012,-0.009)" fill="#000000" stroke-width="8" stroke="white">
        <path
            d="M11910 7201 c-5 -11 -10 -84 -10 -165 l0 -146 -194 0 c-168 0 -195 -2 -200 -16 -11 -30 -7 -229 6 -242 8 -8 67 -12 200 -12 l188 0 0 -178 0 -177 -259 -133 c-142 -73 -264 -139 -270 -146 -9 -10 11 -66 84 -238 l95 -225 -49 -74 c-167 -250 -139 -573 66 -788 35 -36 63 -66 63 -67 0 -1 -21 -5 -47 -9 -197 -28 -333 -92 -333 -157 0 -38 61 -84 145 -111 91 -28 247 -57 312 -57 52 0 53 -6 22 -106 -28 -91 -99 -228 -167 -323 -206 -285 -235 -333 -278 -462 -26 -79 -28 -94 -28 -274 l-1 -190 764 -3 c605 -2 766 0 773 10 11 18 10 240 -2 323 -13 89 -59 220 -100 288 -18 30 -79 116 -137 193 -57 76 -122 169 -144 205 -42 71 -102 226 -113 295 l-7 41 83 7 c172 13 346 64 397 115 32 32 27 73 -12 108 -43 38 -106 61 -238 87 l-109 21 51 50 c128 125 191 276 191 453 -1 134 -34 245 -106 352 l-37 54 101 228 c56 126 100 236 98 245 -2 10 -107 69 -268 152 l-265 136 -3 177 -2 178 197 2 198 3 0 130 0 130 -195 5 -195 5 -3 155 c-2 108 -6 156 -15 162 -6 4 -62 8 -124 8 -101 0 -113 -2 -123 -19z" />
    </g>

    <g id="wp" transform="translate(9,113) scale(0.015,-0.015)" fill="#ffffff" stroke-width="8" stroke="#000000">
        <path
            d="M671 7209 c-25 -5 -78 -24 -118 -43 -322 -153 -397 -580 -146 -833 33 -34 76 -69 94 -78 l32 -17 -6 -132 c-10 -216 -49 -362 -117 -440 -44 -49 -87 -70 -190 -90 -138 -28 -185 -73 -209 -201 -16 -87 -14 -300 3 -314 9 -8 220 -10 772 -9 l759 3 3 154 c3 172 -9 237 -54 291 -36 42 -66 56 -175 80 -106 23 -157 52 -194 109 -53 85 -88 243 -99 441 l-6 105 45 28 c61 39 148 136 179 199 101 209 63 442 -99 603 -124 125 -300 178 -474 144z" />
    </g>
    <g id="wr" transform="translate(-22,113) scale(0.015,-0.015)" fill="#ffffff" stroke-width="8" stroke="#000000">
        <path
            d="M2032 7208 c-23 -23 -6 -778 23 -1023 56 -478 184 -783 431 -1031 78 -78 286 -234 313 -234 14 0 185 118 253 174 76 63 180 181 239 271 154 235 239 541 268 960 17 251 25 849 12 874 -12 21 -17 21 -159 19 l-147 -3 -3 -122 -3 -123 -149 0 -150 0 0 113 c0 75 -4 117 -12 125 -17 17 -279 17 -296 0 -8 -8 -12 -50 -12 -125 l0 -113 -150 0 -150 0 0 113 c0 75 -4 117 -12 125 -8 8 -56 12 -148 12 -92 0 -140 -4 -148 -12z" />
    </g>
    <g id="wn" transform="translate(-50,104) scale(0.014,-0.014)" fill="#ffffff" stroke-width="8" stroke="#000000">
        <path
            d="M5160 7206 c-154 -34 -295 -109 -425 -228 -65 -59 -155 -163 -155 -180 0 -6 34 -45 76 -88 l75 -78 -250 -233 c-141 -132 -251 -242 -251 -251 0 -17 176 -229 241 -290 l28 -27 156 53 c85 29 152 49 148 45 -5 -3 -64 -52 -133 -107 -238 -189 -327 -306 -382 -497 -20 -70 -23 -102 -23 -265 0 -160 3 -198 23 -280 13 -52 31 -111 40 -130 l17 -35 761 -3 c871 -2 804 -11 734 90 -50 70 -103 183 -121 258 -18 74 -15 248 5 338 24 110 57 202 171 477 150 364 178 463 179 630 0 160 -34 263 -141 423 -114 172 -274 303 -438 357 -98 33 -237 42 -335 21z" />
    </g>
    <g id="wb" transform="translate(-90,87) scale(0.015,-0.012)" fill="#ffffff" stroke-width="8" stroke="#000000">
        <path
            d="M7083 6957 c-175 -146 -324 -271 -331 -279 -10 -12 1 -54 59 -219 39 -112 91 -263 116 -336 l46 -132 -47 -52 c-56 -62 -109 -169 -132 -264 -19 -82 -14 -241 10 -318 24 -77 83 -180 137 -241 l51 -56 -30 0 c-42 0 -215 -36 -243 -50 -83 -43 -79 -96 12 -134 49 -20 184 -44 312 -55 60 -5 111 -11 113 -14 8 -8 -17 -112 -40 -162 -35 -76 -73 -101 -211 -134 -221 -55 -260 -111 -272 -393 -5 -112 -3 -151 7 -163 11 -13 101 -15 776 -15 l764 0 6 27 c12 44 -4 304 -21 361 -18 61 -62 115 -116 142 -20 11 -79 28 -129 40 -114 24 -171 56 -205 114 -23 39 -60 174 -50 184 2 2 54 8 115 13 200 16 358 57 380 100 15 28 -4 64 -45 83 -40 19 -202 56 -247 56 -16 0 -28 3 -28 6 0 3 20 28 45 56 53 59 98 136 126 215 30 83 37 256 15 343 -23 91 -75 195 -130 263 -26 31 -44 61 -41 67 3 5 23 60 45 122 21 62 70 205 109 317 39 112 71 208 71 215 0 12 -644 549 -664 554 -8 2 -157 -116 -333 -261z m337 -547 l-4 -155 -7 150 c-4 83 -7 155 -7 160 0 6 3 51 6 100 l7 90 5 -95 c3 -52 3 -165 0 -250z" />
    </g>
    <g id="wq" transform="translate(-105,73) scale(0.013,-0.010)" fill="#ffffff" stroke-width="8" stroke="#000000">
        <path
            d="M9695 7210 c-4 -6 -40 -132 -80 -281 -40 -149 -75 -273 -78 -275 -2 -3 -67 38 -143 90 -135 93 -166 107 -179 85 -4 -5 -15 -113 -24 -239 -10 -127 -20 -232 -22 -235 -3 -2 -57 4 -120 15 -63 11 -129 20 -148 20 -32 0 -33 -1 -28 -32 2 -18 72 -188 154 -378 l150 -345 -18 -30 c-9 -16 -30 -66 -44 -110 -22 -65 -27 -98 -28 -180 0 -171 54 -311 165 -431 l58 -61 -112 -17 c-133 -21 -213 -49 -235 -82 -15 -24 -15 -27 4 -52 36 -48 184 -86 391 -99 l102 -6 0 -32 c0 -60 -50 -229 -94 -320 -51 -106 -98 -171 -229 -317 -177 -199 -199 -248 -195 -438 l3 -125 770 0 770 0 0 140 c0 191 -4 199 -219 441 -101 114 -179 233 -224 342 -36 89 -78 271 -68 297 4 10 20 15 53 15 121 0 341 39 405 71 75 38 55 101 -42 132 -27 9 -96 24 -154 33 l-106 17 38 41 c90 98 145 202 167 321 27 139 13 258 -46 385 l-31 68 156 363 c86 199 155 368 152 376 -7 18 -51 16 -185 -7 -63 -11 -116 -18 -118 -17 -1 2 -10 102 -18 223 -20 264 -20 264 -46 264 -11 0 -84 -43 -160 -96 -77 -53 -142 -94 -144 -92 -2 2 -36 125 -76 273 -39 149 -76 276 -82 283 -12 15 -33 16 -42 2z" />

    </g>
    <g id="wk" transform="translate(-123,66) scale(0.012,-0.009)" fill="#ffffff" stroke-width="8" stroke="#000000">

        <path
            d="M11910 7201 c-5 -11 -10 -84 -10 -165 l0 -146 -194 0 c-168 0 -195 -2 -200 -16 -11 -30 -7 -229 6 -242 8 -8 67 -12 200 -12 l188 0 0 -178 0 -177 -259 -133 c-142 -73 -264 -139 -270 -146 -9 -10 11 -66 84 -238 l95 -225 -49 -74 c-167 -250 -139 -573 66 -788 35 -36 63 -66 63 -67 0 -1 -21 -5 -47 -9 -197 -28 -333 -92 -333 -157 0 -38 61 -84 145 -111 91 -28 247 -57 312 -57 52 0 53 -6 22 -106 -28 -91 -99 -228 -167 -323 -206 -285 -235 -333 -278 -462 -26 -79 -28 -94 -28 -274 l-1 -190 764 -3 c605 -2 766 0 773 10 11 18 10 240 -2 323 -13 89 -59 220 -100 288 -18 30 -79 116 -137 193 -57 76 -122 169 -144 205 -42 71 -102 226 -113 295 l-7 41 83 7 c172 13 346 64 397 115 32 32 27 73 -12 108 -43 38 -106 61 -238 87 l-109 21 51 50 c128 125 191 276 191 453 -1 134 -34 245 -106 352 l-37 54 101 228 c56 126 100 236 98 245 -2 10 -107 69 -268 152 l-265 136 -3 177 -2 178 197 2 198 3 0 130 0 130 -195 5 -195 5 -3 155 c-2 108 -6 156 -15 162 -6 4 -62 8 -124 8 -101 0 -113 -2 -123 -19z" />
    </g>

</svg>